<?xml version="1.0" encoding="UTF-8" standalone="no"?>
<!-- Created with Inkscape (http://www.inkscape.org/) -->

<svg
   xmlns:dc="http://purl.org/dc/elements/1.1/"
   xmlns:cc="http://creativecommons.org/ns#"
   xmlns:rdf="http://www.w3.org/1999/02/22-rdf-syntax-ns#"
   xmlns:svg="http://www.w3.org/2000/svg"
   xmlns="http://www.w3.org/2000/svg"
   xmlns:sodipodi="http://sodipodi.sourceforge.net/DTD/sodipodi-0.dtd"
   xmlns:inkscape="http://www.inkscape.org/namespaces/inkscape"
   width="100"
   height="100"
   viewBox="0 0 26.458333 26.458334"
   version="1.1"
   id="svg8"
   inkscape:version="0.92.3 (2405546, 2018-03-11)"
   sodipodi:docname="logo-assmat.svg">
  <defs
     id="defs2" />
  <sodipodi:namedview
     id="base"
     pagecolor="#ffffff"
     bordercolor="#666666"
     borderopacity="1.0"
     inkscape:pageopacity="0.0"
     inkscape:pageshadow="2"
     inkscape:zoom="2.56"
     inkscape:cx="36.957147"
     inkscape:cy="59.907798"
     inkscape:document-units="mm"
     inkscape:current-layer="layer1"
     showgrid="false"
     units="px"
     inkscape:window-width="1366"
     inkscape:window-height="705"
     inkscape:window-x="-8"
     inkscape:window-y="-8"
     inkscape:window-maximized="1" />
  <metadata
     id="metadata5">
    <rdf:RDF>
      <cc:Work
         rdf:about="">
        <dc:format>image/svg+xml</dc:format>
        <dc:type
           rdf:resource="http://purl.org/dc/dcmitype/StillImage" />
        <dc:title></dc:title>
      </cc:Work>
    </rdf:RDF>
  </metadata>
  <g
     inkscape:label="Calque 1"
     inkscape:groupmode="layer"
     id="layer1"
     transform="translate(0,-270.54165)">
    <g
       aria-label="C"
       transform="matrix(0.37181777,0,0,0.29433854,-3.1261785,262.55005)"
       style="font-style:normal;font-weight:normal;font-size:40px;line-height:1.25;font-family:sans-serif;letter-spacing:0px;word-spacing:0px;fill:#000000;fill-opacity:1;stroke:none"
       id="flowRoot4518">
      <path
         d="m 72.109375,110.82491 q -9.316406,4.92187 -23.203125,4.92187 -17.929688,0 -28.710938,-11.54297 Q 9.4140625,92.660843 9.4140625,73.910843 q 0,-20.15625 12.1289065,-32.578125 12.128906,-12.421875 30.761718,-12.421875 11.953125,0 19.804688,3.457031 V 42.856156 Q 63.085937,37.817093 52.1875,37.817093 q -14.472656,0 -23.496094,9.667969 -8.964844,9.667969 -8.964844,25.839844 0,15.351562 8.378907,24.492187 8.4375,9.082027 22.089843,9.082027 12.65625,0 21.914063,-5.625 z"
         style="font-style:normal;font-variant:normal;font-weight:normal;font-stretch:normal;font-size:120px;font-family:'Segoe UI';-inkscape-font-specification:'Segoe UI'"
         id="path4534"
         inkscape:connector-curvature="0" />
    </g>
    <g
       aria-label="A"
       transform="matrix(0.71855942,0,0,0.66596813,24.551282,258.95057)"
       style="font-style:normal;font-weight:normal;font-size:40px;line-height:1.25;font-family:sans-serif;letter-spacing:0px;word-spacing:0px;fill:#000000;fill-opacity:1;stroke:none"
       id="flowRoot4526">
      <path
         d="M -0.8984375,50.165088 H -5.0195312 L -7.8710937,42.059619 H -20.449219 l -2.851562,8.105469 h -3.925781 l 10.585937,-29.082032 h 5.15625 z M -9.0625,38.739306 -14.160156,24.461963 -19.277344,38.739306 Z"
         id="path4537"
         inkscape:connector-curvature="0" />
    </g>
  </g>
</svg>
