<?xml version="1.0" encoding="UTF-8" standalone="no"?>
<!-- Created with Inkscape (http://www.inkscape.org/) -->

<svg
   xmlns:dc="http://purl.org/dc/elements/1.1/"
   xmlns:cc="http://creativecommons.org/ns#"
   xmlns:rdf="http://www.w3.org/1999/02/22-rdf-syntax-ns#"
   xmlns:svg="http://www.w3.org/2000/svg"
   xmlns="http://www.w3.org/2000/svg"
   xmlns:sodipodi="http://sodipodi.sourceforge.net/DTD/sodipodi-0.dtd"
   xmlns:inkscape="http://www.inkscape.org/namespaces/inkscape"
   width="100"
   height="100"
   viewBox="0 0 26.458333 26.458334"
   version="1.1"
   id="svg8"
   inkscape:version="0.92.3 (2405546, 2018-03-11)"
   sodipodi:docname="logo-assmat.svg"
   inkscape:export-filename="D:\dev\formation-workspaces\calcul-assmat-ihm\src\assets\pictures\logo-assmat.png"
   inkscape:export-xdpi="288"
   inkscape:export-ydpi="288">
  <defs
     id="defs2" />
  <sodipodi:namedview
     id="base"
     pagecolor="#ffffff"
     bordercolor="#666666"
     borderopacity="1.0"
     inkscape:pageopacity="0.0"
     inkscape:pageshadow="2"
     inkscape:zoom="2.56"
     inkscape:cx="56.611094"
     inkscape:cy="52.91109"
     inkscape:document-units="mm"
     inkscape:current-layer="layer1"
     showgrid="false"
     units="px"
     inkscape:window-width="1366"
     inkscape:window-height="705"
     inkscape:window-x="-8"
     inkscape:window-y="308"
     inkscape:window-maximized="1" />
  <metadata
     id="metadata5">
    <rdf:RDF>
      <cc:Work
         rdf:about="">
        <dc:format>image/svg+xml</dc:format>
        <dc:type
           rdf:resource="http://purl.org/dc/dcmitype/StillImage" />
        <dc:title />
      </cc:Work>
    </rdf:RDF>
  </metadata>
  <g
     inkscape:label="Calque 1"
     inkscape:groupmode="layer"
     id="layer1"
     transform="translate(0,-270.54165)">
    <g
       id="g845"
       transform="scale(1.1665528,1)">
      <path
         style="fill:#000000;fill-opacity:1;stroke-width:1.02811229"
         d="M 50,0 A 49.999999,49.999999 0 0 0 0,50 49.999999,49.999999 0 0 0 50,100 49.999999,49.999999 0 0 0 84.970703,85.671875 L 58.576172,13.402344 a 37.630672,37.630672 0 0 1 18.335937,10.302734 l 8.810547,-8.621094 A 49.999999,49.999999 0 0 0 50,0 Z M 41.419922,13.40625 19.953125,72.595703 A 37.630672,37.630672 0 0 1 12.369141,50 37.630672,37.630672 0 0 1 41.419922,13.40625 Z m 8.3125,4.328125 13.59375,38.074219 H 36.085938 Z M 32.960938,64.662109 h 33.541015 l 5.546875,15.761719 A 37.630672,37.630672 0 0 1 50,87.630859 37.630672,37.630672 0 0 1 27.521484,80.123047 Z"
         transform="matrix(0.26458333,0,0,0.26458333,0,270.54165)"
         id="path821"
         inkscape:connector-curvature="0" />
      <g
         id="flowRoot831"
         style="font-style:normal;font-weight:normal;font-size:40px;line-height:1.25;font-family:sans-serif;letter-spacing:0px;word-spacing:0px;fill:#000000;fill-opacity:1;stroke:none"
         transform="matrix(0.26458333,0,0,0.26458333,-3.2155865,265.71827)"
         aria-label="A" />
    </g>
  </g>
</svg>
